<mxfile host="app.diagrams.net" modified="2023-04-19T05:19:22.939Z" agent="Mozilla/5.0 (Windows NT 10.0; Win64; x64) AppleWebKit/537.36 (KHTML, like Gecko) Chrome/112.0.0.0 Safari/537.36" etag="aPhXHZfupLvdIvKsjp4-" version="21.1.8" type="device">
  <diagram name="Page-1" id="-0K0fuSggcLzKcc7sNIS">
    <mxGraphModel dx="1434" dy="707" grid="1" gridSize="10" guides="1" tooltips="1" connect="0" arrows="1" fold="1" page="1" pageScale="1" pageWidth="850" pageHeight="1100" math="0" shadow="0">
      <root>
        <mxCell id="0" />
        <mxCell id="1" parent="0" />
        <mxCell id="j_SpmWhgk5WJetYd-jSJ-1" value="" style="endArrow=none;html=1;rounded=0;strokeWidth=3;" parent="1" source="lLyF7Y7iA03ba4o-efZi-3" edge="1">
          <mxGeometry width="50" height="50" relative="1" as="geometry">
            <mxPoint x="400" y="641" as="sourcePoint" />
            <mxPoint x="400" y="40" as="targetPoint" />
          </mxGeometry>
        </mxCell>
        <mxCell id="j_SpmWhgk5WJetYd-jSJ-2" value="" style="endArrow=none;html=1;rounded=0;strokeWidth=3;" parent="1" source="j_SpmWhgk5WJetYd-jSJ-35" edge="1">
          <mxGeometry width="50" height="50" relative="1" as="geometry">
            <mxPoint x="400" y="641" as="sourcePoint" />
            <mxPoint x="720" y="960" as="targetPoint" />
          </mxGeometry>
        </mxCell>
        <mxCell id="j_SpmWhgk5WJetYd-jSJ-3" value="" style="endArrow=none;html=1;rounded=0;strokeWidth=3;" parent="1" source="j_SpmWhgk5WJetYd-jSJ-49" edge="1">
          <mxGeometry width="50" height="50" relative="1" as="geometry">
            <mxPoint x="400" y="641" as="sourcePoint" />
            <mxPoint x="80" y="960" as="targetPoint" />
          </mxGeometry>
        </mxCell>
        <mxCell id="j_SpmWhgk5WJetYd-jSJ-30" value="" style="endArrow=none;html=1;rounded=0;strokeWidth=3;" parent="1" target="j_SpmWhgk5WJetYd-jSJ-20" edge="1">
          <mxGeometry width="50" height="50" relative="1" as="geometry">
            <mxPoint x="400" y="641" as="sourcePoint" />
            <mxPoint x="720" y="960" as="targetPoint" />
          </mxGeometry>
        </mxCell>
        <mxCell id="j_SpmWhgk5WJetYd-jSJ-20" value="" style="ellipse;whiteSpace=wrap;html=1;aspect=fixed;fillColor=#66B2FF;strokeWidth=2;direction=west;" parent="1" vertex="1">
          <mxGeometry x="430" y="670" width="20" height="20" as="geometry" />
        </mxCell>
        <mxCell id="j_SpmWhgk5WJetYd-jSJ-32" value="" style="endArrow=none;html=1;rounded=0;strokeWidth=3;" parent="1" source="j_SpmWhgk5WJetYd-jSJ-20" target="j_SpmWhgk5WJetYd-jSJ-31" edge="1">
          <mxGeometry width="50" height="50" relative="1" as="geometry">
            <mxPoint x="447" y="687" as="sourcePoint" />
            <mxPoint x="720" y="960" as="targetPoint" />
          </mxGeometry>
        </mxCell>
        <mxCell id="j_SpmWhgk5WJetYd-jSJ-31" value="" style="ellipse;whiteSpace=wrap;html=1;aspect=fixed;fillColor=#66B2FF;strokeWidth=2;direction=west;" parent="1" vertex="1">
          <mxGeometry x="510" y="750" width="20" height="20" as="geometry" />
        </mxCell>
        <mxCell id="j_SpmWhgk5WJetYd-jSJ-34" value="" style="endArrow=none;html=1;rounded=0;strokeWidth=3;" parent="1" source="j_SpmWhgk5WJetYd-jSJ-31" target="j_SpmWhgk5WJetYd-jSJ-33" edge="1">
          <mxGeometry width="50" height="50" relative="1" as="geometry">
            <mxPoint x="527" y="767" as="sourcePoint" />
            <mxPoint x="720" y="960" as="targetPoint" />
          </mxGeometry>
        </mxCell>
        <mxCell id="j_SpmWhgk5WJetYd-jSJ-33" value="" style="ellipse;whiteSpace=wrap;html=1;aspect=fixed;fillColor=#66B2FF;strokeWidth=2;direction=west;" parent="1" vertex="1">
          <mxGeometry x="590" y="830" width="20" height="20" as="geometry" />
        </mxCell>
        <mxCell id="j_SpmWhgk5WJetYd-jSJ-38" value="" style="endArrow=none;html=1;rounded=0;strokeWidth=3;" parent="1" source="j_SpmWhgk5WJetYd-jSJ-33" target="j_SpmWhgk5WJetYd-jSJ-35" edge="1">
          <mxGeometry width="50" height="50" relative="1" as="geometry">
            <mxPoint x="607" y="847" as="sourcePoint" />
            <mxPoint x="720" y="960" as="targetPoint" />
          </mxGeometry>
        </mxCell>
        <mxCell id="j_SpmWhgk5WJetYd-jSJ-35" value="" style="ellipse;whiteSpace=wrap;html=1;aspect=fixed;fillColor=#66B2FF;strokeWidth=2;direction=west;" parent="1" vertex="1">
          <mxGeometry x="670" y="910" width="20" height="20" as="geometry" />
        </mxCell>
        <mxCell id="j_SpmWhgk5WJetYd-jSJ-40" value="" style="endArrow=none;html=1;rounded=0;strokeWidth=3;" parent="1" target="j_SpmWhgk5WJetYd-jSJ-39" edge="1">
          <mxGeometry width="50" height="50" relative="1" as="geometry">
            <mxPoint x="400" y="641" as="sourcePoint" />
            <mxPoint x="80" y="960" as="targetPoint" />
          </mxGeometry>
        </mxCell>
        <mxCell id="j_SpmWhgk5WJetYd-jSJ-39" value="" style="ellipse;whiteSpace=wrap;html=1;aspect=fixed;fillColor=#66B2FF;strokeWidth=2;direction=west;" parent="1" vertex="1">
          <mxGeometry x="350" y="670" width="20" height="20" as="geometry" />
        </mxCell>
        <mxCell id="j_SpmWhgk5WJetYd-jSJ-42" value="" style="endArrow=none;html=1;rounded=0;strokeWidth=3;" parent="1" source="j_SpmWhgk5WJetYd-jSJ-45" target="j_SpmWhgk5WJetYd-jSJ-41" edge="1">
          <mxGeometry width="50" height="50" relative="1" as="geometry">
            <mxPoint x="353" y="687" as="sourcePoint" />
            <mxPoint x="80" y="960" as="targetPoint" />
          </mxGeometry>
        </mxCell>
        <mxCell id="j_SpmWhgk5WJetYd-jSJ-41" value="" style="ellipse;whiteSpace=wrap;html=1;aspect=fixed;fillColor=#66B2FF;strokeWidth=2;direction=west;" parent="1" vertex="1">
          <mxGeometry x="270" y="750" width="20" height="20" as="geometry" />
        </mxCell>
        <mxCell id="j_SpmWhgk5WJetYd-jSJ-44" value="" style="endArrow=none;html=1;rounded=0;strokeWidth=3;" parent="1" source="j_SpmWhgk5WJetYd-jSJ-47" target="j_SpmWhgk5WJetYd-jSJ-43" edge="1">
          <mxGeometry width="50" height="50" relative="1" as="geometry">
            <mxPoint x="273" y="767" as="sourcePoint" />
            <mxPoint x="80" y="960" as="targetPoint" />
          </mxGeometry>
        </mxCell>
        <mxCell id="j_SpmWhgk5WJetYd-jSJ-43" value="" style="ellipse;whiteSpace=wrap;html=1;aspect=fixed;fillColor=#66B2FF;strokeWidth=2;direction=west;" parent="1" vertex="1">
          <mxGeometry x="190" y="830" width="20" height="20" as="geometry" />
        </mxCell>
        <mxCell id="j_SpmWhgk5WJetYd-jSJ-46" value="" style="endArrow=none;html=1;rounded=0;strokeWidth=3;" parent="1" source="j_SpmWhgk5WJetYd-jSJ-39" target="j_SpmWhgk5WJetYd-jSJ-45" edge="1">
          <mxGeometry width="50" height="50" relative="1" as="geometry">
            <mxPoint x="353" y="687" as="sourcePoint" />
            <mxPoint x="287" y="753" as="targetPoint" />
          </mxGeometry>
        </mxCell>
        <mxCell id="j_SpmWhgk5WJetYd-jSJ-45" value="" style="ellipse;whiteSpace=wrap;html=1;aspect=fixed;fillColor=#66B2FF;strokeWidth=2;direction=west;" parent="1" vertex="1">
          <mxGeometry x="310" y="710" width="20" height="20" as="geometry" />
        </mxCell>
        <mxCell id="j_SpmWhgk5WJetYd-jSJ-48" value="" style="endArrow=none;html=1;rounded=0;strokeWidth=3;" parent="1" source="j_SpmWhgk5WJetYd-jSJ-41" target="j_SpmWhgk5WJetYd-jSJ-47" edge="1">
          <mxGeometry width="50" height="50" relative="1" as="geometry">
            <mxPoint x="273" y="767" as="sourcePoint" />
            <mxPoint x="207" y="833" as="targetPoint" />
          </mxGeometry>
        </mxCell>
        <mxCell id="j_SpmWhgk5WJetYd-jSJ-47" value="" style="ellipse;whiteSpace=wrap;html=1;aspect=fixed;fillColor=#66B2FF;strokeWidth=2;direction=west;" parent="1" vertex="1">
          <mxGeometry x="230" y="790" width="20" height="20" as="geometry" />
        </mxCell>
        <mxCell id="j_SpmWhgk5WJetYd-jSJ-50" value="" style="endArrow=none;html=1;rounded=0;strokeWidth=3;" parent="1" source="j_SpmWhgk5WJetYd-jSJ-43" target="j_SpmWhgk5WJetYd-jSJ-49" edge="1">
          <mxGeometry width="50" height="50" relative="1" as="geometry">
            <mxPoint x="193" y="847" as="sourcePoint" />
            <mxPoint x="80" y="960" as="targetPoint" />
          </mxGeometry>
        </mxCell>
        <mxCell id="j_SpmWhgk5WJetYd-jSJ-49" value="" style="ellipse;whiteSpace=wrap;html=1;aspect=fixed;fillColor=#66B2FF;strokeWidth=2;direction=west;" parent="1" vertex="1">
          <mxGeometry x="110" y="910" width="20" height="20" as="geometry" />
        </mxCell>
        <mxCell id="j_SpmWhgk5WJetYd-jSJ-53" value="ALL" style="text;html=1;align=center;verticalAlign=middle;resizable=0;points=[];autosize=1;strokeColor=none;fillColor=none;" parent="1" vertex="1">
          <mxGeometry x="465" y="64.5" width="40" height="30" as="geometry" />
        </mxCell>
        <mxCell id="j_SpmWhgk5WJetYd-jSJ-54" value="Country" style="text;html=1;align=center;verticalAlign=middle;resizable=0;points=[];autosize=1;strokeColor=none;fillColor=none;" parent="1" vertex="1">
          <mxGeometry x="275" y="105" width="70" height="30" as="geometry" />
        </mxCell>
        <mxCell id="j_SpmWhgk5WJetYd-jSJ-55" value="State" style="text;html=1;align=center;verticalAlign=middle;resizable=0;points=[];autosize=1;strokeColor=none;fillColor=none;" parent="1" vertex="1">
          <mxGeometry x="455" y="144.5" width="50" height="30" as="geometry" />
        </mxCell>
        <mxCell id="j_SpmWhgk5WJetYd-jSJ-56" value="County" style="text;html=1;align=center;verticalAlign=middle;resizable=0;points=[];autosize=1;strokeColor=none;fillColor=none;" parent="1" vertex="1">
          <mxGeometry x="275" y="185" width="60" height="30" as="geometry" />
        </mxCell>
        <mxCell id="j_SpmWhgk5WJetYd-jSJ-57" value="City" style="text;html=1;align=center;verticalAlign=middle;resizable=0;points=[];autosize=1;strokeColor=none;fillColor=none;" parent="1" vertex="1">
          <mxGeometry x="455" y="225.5" width="40" height="30" as="geometry" />
        </mxCell>
        <mxCell id="j_SpmWhgk5WJetYd-jSJ-58" value="NPU" style="text;html=1;align=center;verticalAlign=middle;resizable=0;points=[];autosize=1;strokeColor=none;fillColor=none;" parent="1" vertex="1">
          <mxGeometry x="450" y="305.5" width="50" height="30" as="geometry" />
        </mxCell>
        <mxCell id="j_SpmWhgk5WJetYd-jSJ-59" value="Zip Code" style="text;html=1;align=center;verticalAlign=middle;resizable=0;points=[];autosize=1;strokeColor=none;fillColor=none;" parent="1" vertex="1">
          <mxGeometry x="450" y="386" width="70" height="30" as="geometry" />
        </mxCell>
        <mxCell id="j_SpmWhgk5WJetYd-jSJ-60" value="Neighbourhood" style="text;html=1;align=center;verticalAlign=middle;resizable=0;points=[];autosize=1;strokeColor=none;fillColor=none;" parent="1" vertex="1">
          <mxGeometry x="260" y="426" width="110" height="30" as="geometry" />
        </mxCell>
        <mxCell id="j_SpmWhgk5WJetYd-jSJ-61" value="LocationType" style="text;html=1;align=center;verticalAlign=middle;resizable=0;points=[];autosize=1;strokeColor=none;fillColor=none;" parent="1" vertex="1">
          <mxGeometry x="275" y="506" width="90" height="30" as="geometry" />
        </mxCell>
        <mxCell id="j_SpmWhgk5WJetYd-jSJ-62" value="Location" style="text;html=1;align=center;verticalAlign=middle;resizable=0;points=[];autosize=1;strokeColor=none;fillColor=none;" parent="1" vertex="1">
          <mxGeometry x="445" y="546" width="70" height="30" as="geometry" />
        </mxCell>
        <mxCell id="j_SpmWhgk5WJetYd-jSJ-63" value="Lat, Long" style="text;html=1;align=center;verticalAlign=middle;resizable=0;points=[];autosize=1;strokeColor=none;fillColor=none;" parent="1" vertex="1">
          <mxGeometry x="285" y="586" width="70" height="30" as="geometry" />
        </mxCell>
        <mxCell id="j_SpmWhgk5WJetYd-jSJ-64" value="&lt;font style=&quot;font-size: 16px;&quot;&gt;&lt;b&gt;Location&lt;/b&gt;&lt;/font&gt;" style="text;html=1;align=center;verticalAlign=middle;resizable=0;points=[];autosize=1;strokeColor=none;fillColor=none;" parent="1" vertex="1">
          <mxGeometry x="355" y="10" width="90" height="30" as="geometry" />
        </mxCell>
        <mxCell id="j_SpmWhgk5WJetYd-jSJ-66" value="" style="endArrow=none;html=1;rounded=0;strokeWidth=3;" parent="1" target="j_SpmWhgk5WJetYd-jSJ-65" edge="1">
          <mxGeometry width="50" height="50" relative="1" as="geometry">
            <mxPoint x="400" y="641" as="sourcePoint" />
            <mxPoint x="400" y="80" as="targetPoint" />
          </mxGeometry>
        </mxCell>
        <mxCell id="j_SpmWhgk5WJetYd-jSJ-65" value="" style="ellipse;whiteSpace=wrap;html=1;aspect=fixed;fillColor=#66B2FF;strokeWidth=2;" parent="1" vertex="1">
          <mxGeometry x="390" y="150" width="20" height="20" as="geometry" />
        </mxCell>
        <mxCell id="j_SpmWhgk5WJetYd-jSJ-68" value="" style="endArrow=none;html=1;rounded=0;strokeWidth=3;" parent="1" source="j_SpmWhgk5WJetYd-jSJ-65" target="j_SpmWhgk5WJetYd-jSJ-67" edge="1">
          <mxGeometry width="50" height="50" relative="1" as="geometry">
            <mxPoint x="400" y="150" as="sourcePoint" />
            <mxPoint x="400" y="80" as="targetPoint" />
          </mxGeometry>
        </mxCell>
        <mxCell id="j_SpmWhgk5WJetYd-jSJ-67" value="" style="ellipse;whiteSpace=wrap;html=1;aspect=fixed;fillColor=#66B2FF;strokeWidth=2;" parent="1" vertex="1">
          <mxGeometry x="390" y="110" width="20" height="20" as="geometry" />
        </mxCell>
        <mxCell id="j_SpmWhgk5WJetYd-jSJ-15" value="" style="ellipse;whiteSpace=wrap;html=1;aspect=fixed;fillColor=#66B2FF;strokeWidth=2;" parent="1" vertex="1">
          <mxGeometry x="390" y="190" width="20" height="20" as="geometry" />
        </mxCell>
        <mxCell id="j_SpmWhgk5WJetYd-jSJ-14" value="" style="ellipse;whiteSpace=wrap;html=1;aspect=fixed;fillColor=#66B2FF;strokeWidth=2;" parent="1" vertex="1">
          <mxGeometry x="390" y="231" width="20" height="20" as="geometry" />
        </mxCell>
        <mxCell id="j_SpmWhgk5WJetYd-jSJ-13" value="" style="ellipse;whiteSpace=wrap;html=1;aspect=fixed;fillColor=#66B2FF;strokeWidth=2;" parent="1" vertex="1">
          <mxGeometry x="390" y="271" width="20" height="20" as="geometry" />
        </mxCell>
        <mxCell id="j_SpmWhgk5WJetYd-jSJ-7" value="" style="ellipse;whiteSpace=wrap;html=1;aspect=fixed;fillColor=#66B2FF;strokeWidth=2;" parent="1" vertex="1">
          <mxGeometry x="390" y="311" width="20" height="20" as="geometry" />
        </mxCell>
        <mxCell id="j_SpmWhgk5WJetYd-jSJ-11" value="" style="ellipse;whiteSpace=wrap;html=1;aspect=fixed;fillColor=#66B2FF;strokeWidth=2;" parent="1" vertex="1">
          <mxGeometry x="390" y="351" width="20" height="20" as="geometry" />
        </mxCell>
        <mxCell id="j_SpmWhgk5WJetYd-jSJ-6" value="" style="ellipse;whiteSpace=wrap;html=1;aspect=fixed;fillColor=#66B2FF;strokeWidth=2;" parent="1" vertex="1">
          <mxGeometry x="390" y="391" width="20" height="20" as="geometry" />
        </mxCell>
        <mxCell id="j_SpmWhgk5WJetYd-jSJ-10" value="" style="ellipse;whiteSpace=wrap;html=1;aspect=fixed;fillColor=#66B2FF;strokeWidth=2;" parent="1" vertex="1">
          <mxGeometry x="390" y="431" width="20" height="20" as="geometry" />
        </mxCell>
        <mxCell id="j_SpmWhgk5WJetYd-jSJ-5" value="" style="ellipse;whiteSpace=wrap;html=1;aspect=fixed;fillColor=#66B2FF;strokeWidth=2;" parent="1" vertex="1">
          <mxGeometry x="390" y="471" width="20" height="20" as="geometry" />
        </mxCell>
        <mxCell id="j_SpmWhgk5WJetYd-jSJ-9" value="" style="ellipse;whiteSpace=wrap;html=1;aspect=fixed;fillColor=#66B2FF;strokeWidth=2;" parent="1" vertex="1">
          <mxGeometry x="390" y="511" width="20" height="20" as="geometry" />
        </mxCell>
        <mxCell id="j_SpmWhgk5WJetYd-jSJ-8" value="" style="ellipse;whiteSpace=wrap;html=1;aspect=fixed;fillColor=#66B2FF;strokeWidth=2;" parent="1" vertex="1">
          <mxGeometry x="390" y="591" width="20" height="20" as="geometry" />
        </mxCell>
        <mxCell id="j_SpmWhgk5WJetYd-jSJ-4" value="" style="ellipse;whiteSpace=wrap;html=1;aspect=fixed;fillColor=#66B2FF;strokeWidth=2;" parent="1" vertex="1">
          <mxGeometry x="390" y="551" width="20" height="20" as="geometry" />
        </mxCell>
        <mxCell id="j_SpmWhgk5WJetYd-jSJ-70" value="Patrol Beat" style="text;html=1;align=center;verticalAlign=middle;resizable=0;points=[];autosize=1;strokeColor=none;fillColor=none;" parent="1" vertex="1">
          <mxGeometry x="270" y="346" width="80" height="30" as="geometry" />
        </mxCell>
        <mxCell id="j_SpmWhgk5WJetYd-jSJ-71" value="Police Zone" style="text;html=1;align=center;verticalAlign=middle;resizable=0;points=[];autosize=1;strokeColor=none;fillColor=none;" parent="1" vertex="1">
          <mxGeometry x="260" y="266" width="90" height="30" as="geometry" />
        </mxCell>
        <mxCell id="j_SpmWhgk5WJetYd-jSJ-72" value="CrimeType" style="text;html=1;align=center;verticalAlign=middle;resizable=0;points=[];autosize=1;strokeColor=none;fillColor=none;" parent="1" vertex="1">
          <mxGeometry x="480" y="665" width="80" height="30" as="geometry" />
        </mxCell>
        <mxCell id="j_SpmWhgk5WJetYd-jSJ-73" value="IndexCrimeType" style="text;html=1;align=center;verticalAlign=middle;resizable=0;points=[];autosize=1;strokeColor=none;fillColor=none;" parent="1" vertex="1">
          <mxGeometry x="545" y="745" width="110" height="30" as="geometry" />
        </mxCell>
        <mxCell id="j_SpmWhgk5WJetYd-jSJ-74" value="IndexCrimeCategory" style="text;html=1;align=center;verticalAlign=middle;resizable=0;points=[];autosize=1;strokeColor=none;fillColor=none;" parent="1" vertex="1">
          <mxGeometry x="615" y="825" width="130" height="30" as="geometry" />
        </mxCell>
        <mxCell id="j_SpmWhgk5WJetYd-jSJ-75" value="ALL" style="text;html=1;align=center;verticalAlign=middle;resizable=0;points=[];autosize=1;strokeColor=none;fillColor=none;" parent="1" vertex="1">
          <mxGeometry x="705" y="905" width="40" height="30" as="geometry" />
        </mxCell>
        <mxCell id="j_SpmWhgk5WJetYd-jSJ-76" value="Date" style="text;html=1;align=center;verticalAlign=middle;resizable=0;points=[];autosize=1;strokeColor=none;fillColor=none;" parent="1" vertex="1">
          <mxGeometry x="255" y="665" width="50" height="30" as="geometry" />
        </mxCell>
        <mxCell id="j_SpmWhgk5WJetYd-jSJ-77" value="DayOfWeek" style="text;html=1;align=center;verticalAlign=middle;resizable=0;points=[];autosize=1;strokeColor=none;fillColor=none;" parent="1" vertex="1">
          <mxGeometry x="210" y="705" width="90" height="30" as="geometry" />
        </mxCell>
        <mxCell id="j_SpmWhgk5WJetYd-jSJ-78" value="Month" style="text;html=1;align=center;verticalAlign=middle;resizable=0;points=[];autosize=1;strokeColor=none;fillColor=none;" parent="1" vertex="1">
          <mxGeometry x="185" y="745" width="60" height="30" as="geometry" />
        </mxCell>
        <mxCell id="j_SpmWhgk5WJetYd-jSJ-79" value="Quarter" style="text;html=1;align=center;verticalAlign=middle;resizable=0;points=[];autosize=1;strokeColor=none;fillColor=none;" parent="1" vertex="1">
          <mxGeometry x="150" y="785" width="60" height="30" as="geometry" />
        </mxCell>
        <mxCell id="j_SpmWhgk5WJetYd-jSJ-80" value="Year" style="text;html=1;align=center;verticalAlign=middle;resizable=0;points=[];autosize=1;strokeColor=none;fillColor=none;" parent="1" vertex="1">
          <mxGeometry x="115" y="825" width="50" height="30" as="geometry" />
        </mxCell>
        <mxCell id="j_SpmWhgk5WJetYd-jSJ-81" value="ALL" style="text;html=1;align=center;verticalAlign=middle;resizable=0;points=[];autosize=1;strokeColor=none;fillColor=none;" parent="1" vertex="1">
          <mxGeometry x="55" y="905" width="40" height="30" as="geometry" />
        </mxCell>
        <mxCell id="j_SpmWhgk5WJetYd-jSJ-82" value="&lt;b&gt;&lt;font style=&quot;font-size: 16px;&quot;&gt;Time&lt;/font&gt;&lt;/b&gt;" style="text;html=1;align=center;verticalAlign=middle;resizable=0;points=[];autosize=1;strokeColor=none;fillColor=none;" parent="1" vertex="1">
          <mxGeometry x="10" y="965" width="60" height="30" as="geometry" />
        </mxCell>
        <mxCell id="j_SpmWhgk5WJetYd-jSJ-83" value="&lt;font style=&quot;font-size: 16px;&quot;&gt;&lt;b&gt;Crime Type&lt;/b&gt;&lt;/font&gt;" style="text;html=1;align=center;verticalAlign=middle;resizable=0;points=[];autosize=1;strokeColor=none;fillColor=none;" parent="1" vertex="1">
          <mxGeometry x="705" y="965" width="110" height="30" as="geometry" />
        </mxCell>
        <mxCell id="lLyF7Y7iA03ba4o-efZi-4" value="" style="endArrow=none;html=1;rounded=0;strokeWidth=3;" parent="1" source="j_SpmWhgk5WJetYd-jSJ-67" target="lLyF7Y7iA03ba4o-efZi-3" edge="1">
          <mxGeometry width="50" height="50" relative="1" as="geometry">
            <mxPoint x="400" y="110" as="sourcePoint" />
            <mxPoint x="400" y="-10" as="targetPoint" />
          </mxGeometry>
        </mxCell>
        <mxCell id="lLyF7Y7iA03ba4o-efZi-3" value="" style="ellipse;whiteSpace=wrap;html=1;aspect=fixed;fillColor=#66B2FF;strokeWidth=2;" parent="1" vertex="1">
          <mxGeometry x="390" y="70" width="20" height="20" as="geometry" />
        </mxCell>
        <mxCell id="lLyF7Y7iA03ba4o-efZi-5" value="Road" style="text;html=1;align=center;verticalAlign=middle;resizable=0;points=[];autosize=1;strokeColor=none;fillColor=none;" parent="1" vertex="1">
          <mxGeometry x="450" y="461" width="50" height="30" as="geometry" />
        </mxCell>
        <mxCell id="lLyF7Y7iA03ba4o-efZi-6" value="&lt;font style=&quot;font-size: 24px;&quot;&gt;&lt;span style=&quot;&quot;&gt;&lt;font color=&quot;#33ff33&quot;&gt;1&lt;/font&gt;&lt;/span&gt;&lt;br&gt;&lt;font style=&quot;font-size: 24px;&quot;&gt;&lt;font color=&quot;#ff3333&quot;&gt;2&lt;br&gt;&lt;/font&gt;&lt;font color=&quot;#ffff33&quot;&gt;3&lt;/font&gt;&lt;br&gt;&lt;font color=&quot;#33ffff&quot;&gt;4&lt;/font&gt;&lt;br&gt;&lt;font color=&quot;#9933ff&quot;&gt;5&lt;/font&gt;&lt;br&gt;&lt;/font&gt;&lt;/font&gt;" style="text;html=1;strokeColor=none;fillColor=none;align=center;verticalAlign=middle;whiteSpace=wrap;rounded=0;" parent="1" vertex="1">
          <mxGeometry x="180" y="281" width="60" height="180" as="geometry" />
        </mxCell>
        <mxCell id="lLyF7Y7iA03ba4o-efZi-9" value="" style="endArrow=none;dashed=1;html=1;rounded=0;entryX=1;entryY=1;entryDx=0;entryDy=0;strokeWidth=3;fillColor=#60a917;strokeColor=#33FF33;" parent="1" target="j_SpmWhgk5WJetYd-jSJ-35" edge="1">
          <mxGeometry width="50" height="50" relative="1" as="geometry">
            <mxPoint x="400" y="285.5" as="sourcePoint" />
            <mxPoint x="520" y="225.5" as="targetPoint" />
          </mxGeometry>
        </mxCell>
        <mxCell id="lLyF7Y7iA03ba4o-efZi-10" value="" style="endArrow=none;dashed=1;html=1;rounded=0;strokeWidth=3;fillColor=#60a917;strokeColor=#33FF33;" parent="1" edge="1">
          <mxGeometry width="50" height="50" relative="1" as="geometry">
            <mxPoint x="120" y="920" as="sourcePoint" />
            <mxPoint x="670" y="915" as="targetPoint" />
          </mxGeometry>
        </mxCell>
        <mxCell id="lLyF7Y7iA03ba4o-efZi-11" value="" style="endArrow=none;dashed=1;html=1;rounded=0;strokeWidth=3;fillColor=#60a917;strokeColor=#33FF33;" parent="1" edge="1">
          <mxGeometry width="50" height="50" relative="1" as="geometry">
            <mxPoint x="120" y="920" as="sourcePoint" />
            <mxPoint x="400" y="290" as="targetPoint" />
          </mxGeometry>
        </mxCell>
        <mxCell id="ZpGG5nfuBjMQFuk-RRHA-1" value="" style="endArrow=none;dashed=1;html=1;rounded=0;strokeWidth=3;fillColor=#60a917;strokeColor=#FF3333;" edge="1" parent="1">
          <mxGeometry width="50" height="50" relative="1" as="geometry">
            <mxPoint x="400" y="360" as="sourcePoint" />
            <mxPoint x="600" y="840" as="targetPoint" />
          </mxGeometry>
        </mxCell>
        <mxCell id="ZpGG5nfuBjMQFuk-RRHA-2" value="" style="endArrow=none;dashed=1;html=1;rounded=0;strokeWidth=3;fillColor=#60a917;strokeColor=#FF3333;" edge="1" parent="1" target="j_SpmWhgk5WJetYd-jSJ-49">
          <mxGeometry width="50" height="50" relative="1" as="geometry">
            <mxPoint x="600" y="830" as="sourcePoint" />
            <mxPoint x="120" y="930" as="targetPoint" />
          </mxGeometry>
        </mxCell>
        <mxCell id="ZpGG5nfuBjMQFuk-RRHA-3" value="" style="endArrow=none;dashed=1;html=1;rounded=0;strokeWidth=3;fillColor=#60a917;strokeColor=#FF3333;" edge="1" parent="1" target="j_SpmWhgk5WJetYd-jSJ-49">
          <mxGeometry width="50" height="50" relative="1" as="geometry">
            <mxPoint x="400" y="363" as="sourcePoint" />
            <mxPoint x="-70" y="451" as="targetPoint" />
          </mxGeometry>
        </mxCell>
        <mxCell id="ZpGG5nfuBjMQFuk-RRHA-4" value="" style="endArrow=none;dashed=1;html=1;rounded=0;strokeWidth=3;strokeColor=#FFFF33;" edge="1" parent="1" source="j_SpmWhgk5WJetYd-jSJ-49" target="j_SpmWhgk5WJetYd-jSJ-35">
          <mxGeometry width="50" height="50" relative="1" as="geometry">
            <mxPoint x="230" y="985" as="sourcePoint" />
            <mxPoint x="530" y="950" as="targetPoint" />
          </mxGeometry>
        </mxCell>
        <mxCell id="ZpGG5nfuBjMQFuk-RRHA-5" value="" style="endArrow=none;dashed=1;html=1;rounded=0;strokeWidth=3;strokeColor=#FFFF33;" edge="1" parent="1" target="lLyF7Y7iA03ba4o-efZi-3">
          <mxGeometry width="50" height="50" relative="1" as="geometry">
            <mxPoint x="670" y="919.5" as="sourcePoint" />
            <mxPoint x="400" y="620" as="targetPoint" />
          </mxGeometry>
        </mxCell>
        <mxCell id="ZpGG5nfuBjMQFuk-RRHA-6" value="" style="endArrow=none;dashed=1;html=1;rounded=0;strokeWidth=3;strokeColor=#FFFF33;entryX=1;entryY=0;entryDx=0;entryDy=0;" edge="1" parent="1" source="lLyF7Y7iA03ba4o-efZi-3" target="j_SpmWhgk5WJetYd-jSJ-49">
          <mxGeometry width="50" height="50" relative="1" as="geometry">
            <mxPoint x="390" y="635.5" as="sourcePoint" />
            <mxPoint x="120" y="346" as="targetPoint" />
          </mxGeometry>
        </mxCell>
        <mxCell id="ZpGG5nfuBjMQFuk-RRHA-7" value="" style="endArrow=none;dashed=1;html=1;rounded=0;strokeWidth=3;fillColor=#60a917;strokeColor=#33FFFF;exitX=1;exitY=1;exitDx=0;exitDy=0;entryX=0;entryY=0;entryDx=0;entryDy=0;" edge="1" parent="1" source="j_SpmWhgk5WJetYd-jSJ-35" target="j_SpmWhgk5WJetYd-jSJ-47">
          <mxGeometry width="50" height="50" relative="1" as="geometry">
            <mxPoint x="585" y="840" as="sourcePoint" />
            <mxPoint x="115" y="928" as="targetPoint" />
          </mxGeometry>
        </mxCell>
        <mxCell id="ZpGG5nfuBjMQFuk-RRHA-8" value="" style="endArrow=none;dashed=1;html=1;rounded=0;strokeWidth=3;fillColor=#60a917;strokeColor=#33FFFF;exitX=0.5;exitY=1;exitDx=0;exitDy=0;" edge="1" parent="1" source="j_SpmWhgk5WJetYd-jSJ-35" target="j_SpmWhgk5WJetYd-jSJ-14">
          <mxGeometry width="50" height="50" relative="1" as="geometry">
            <mxPoint x="1098" y="516" as="sourcePoint" />
            <mxPoint x="400" y="630" as="targetPoint" />
          </mxGeometry>
        </mxCell>
        <mxCell id="ZpGG5nfuBjMQFuk-RRHA-9" value="" style="endArrow=none;dashed=1;html=1;rounded=0;strokeWidth=3;fillColor=#60a917;strokeColor=#33FFFF;exitX=1;exitY=1;exitDx=0;exitDy=0;" edge="1" parent="1" source="j_SpmWhgk5WJetYd-jSJ-47" target="j_SpmWhgk5WJetYd-jSJ-14">
          <mxGeometry width="50" height="50" relative="1" as="geometry">
            <mxPoint x="120" y="920" as="sourcePoint" />
            <mxPoint x="400" y="630" as="targetPoint" />
          </mxGeometry>
        </mxCell>
        <mxCell id="ZpGG5nfuBjMQFuk-RRHA-10" value="" style="endArrow=none;dashed=1;html=1;rounded=0;strokeWidth=3;strokeColor=#9933FF;entryX=1;entryY=0;entryDx=0;entryDy=0;" edge="1" parent="1" target="j_SpmWhgk5WJetYd-jSJ-14">
          <mxGeometry width="50" height="50" relative="1" as="geometry">
            <mxPoint x="440" y="680" as="sourcePoint" />
            <mxPoint x="510" y="570" as="targetPoint" />
          </mxGeometry>
        </mxCell>
        <mxCell id="ZpGG5nfuBjMQFuk-RRHA-11" value="" style="endArrow=none;dashed=1;html=1;rounded=0;strokeWidth=3;strokeColor=#9933FF;entryX=0;entryY=1;entryDx=0;entryDy=0;" edge="1" parent="1" target="j_SpmWhgk5WJetYd-jSJ-14">
          <mxGeometry width="50" height="50" relative="1" as="geometry">
            <mxPoint x="120" y="920" as="sourcePoint" />
            <mxPoint x="120" y="251" as="targetPoint" />
          </mxGeometry>
        </mxCell>
        <mxCell id="ZpGG5nfuBjMQFuk-RRHA-12" value="" style="endArrow=none;dashed=1;html=1;rounded=0;strokeWidth=3;strokeColor=#9933FF;" edge="1" parent="1">
          <mxGeometry width="50" height="50" relative="1" as="geometry">
            <mxPoint x="120" y="920" as="sourcePoint" />
            <mxPoint x="430" y="680" as="targetPoint" />
          </mxGeometry>
        </mxCell>
      </root>
    </mxGraphModel>
  </diagram>
</mxfile>
